<?xml version="1.0" encoding="utf-8"?>
<!-- Generator: Adobe Illustrator 21.0.0, SVG Export Plug-In . SVG Version: 6.00 Build 0)  -->
<svg version="1.1" id="ske-viz-opposite-0" xmlns="http://www.w3.org/2000/svg" xmlns:xlink="http://www.w3.org/1999/xlink" x="0px"
	 y="0px" viewBox="0 0 1058 364" style="enable-background:new 0 0 1058 364;" xml:space="preserve">
<style type="text/css">
	.st0{fill:#DDB43B;}
	.st1{fill:#C1B04C;}
	.st2{fill:#A3AD5B;}
	.st3{fill:#6AA67B;}
	.st4{fill:#4DA18C;}
	.st5{fill:#139AAB;}
	.st6{fill:#E1A427;}
	.st7{fill:#118B9A;}
	.st8{fill:#FFFFFF;}
	.st9{font-family:'Helvetica';}
	.st10{font-size:28px;}
	.st11{fill:#DA9403;stroke:#B67C03;stroke-width:2;}
	.st12{fill:#048696;stroke:#03707D;stroke-width:2;}
	.st13{font-size:40px;}
	.st14{fill:none;stroke:#FFFFFF;stroke-width:2;stroke-miterlimit:10;}
	.st15{fill:none;stroke:#FFFFFF;stroke-width:1.5;stroke-miterlimit:10;}
	.st16{enable-background:new    ;}
	.st17{font-size:28.0624px;}
	.st18{font-size:33.7806px;}
	.st19{font-size:44.404px;}
	.st20{font-size:41.3882px;}
</style>
<g transform="translate(140, 120)">
	<g>
		<rect id="score__rect-0-0" x="693.8" y="-110" class="st0" width="152.4" height="342.3"/>
		<rect id="score__rect-0-1" x="542" y="-110" class="st1" width="152.2" height="342.3"/>
		<rect id="score__rect-0-2" x="389.7" y="-110" class="st2" width="152.2" height="342.3"/>
		<rect id="score__rect-0-4" x="237.5" y="-110" class="st3" width="152.2" height="342.3"/>
		<rect id="score__rect-0-5" x="85.2" y="-110" class="st4" width="152.2" height="342.3"/>
		<rect id="score__rect-0-7" x="-67" y="-110" class="st5" width="152.2" height="342.3"/>
	</g>
	<g>
		<rect id="main_word-0-research__rect" x="846" y="-110" class="st6" width="60" height="342.3"/>
		<rect id="main_word-1-experiment__rect" x="-127" y="-110" class="st7" width="60" height="342.3"/>
	</g>
	<g>
		<text transform="matrix(1 0 0 1 -60 217.27)" class="st8 st9 st10">mostly with left</text>
		<text transform="matrix(1 0 0 1 238.5867 217.27)" class="st8 st9 st10">equally frequently with both</text>
		<text transform="matrix(1 0 0 1 638.6753 217.27)" class="st8 st9 st10">mostly with right</text>
	</g>
</g>
<circle id="word__circle-4673278901__0" class="st11" cx="579.5" cy="101.7" r="49.4"/>
<circle id="word__circle-11015487990__1" class="st12" cx="489.1" cy="101.7" r="41"/>
<text id="word__text-4673278901" transform="matrix(1 0 0 1 471.5923 114.07)" class="st8 st9 st13">equally</text>
<g>
	<g>
		<line class="st14" x1="66" y1="331" x2="36.9" y2="331"/>
		<g>
			<polygon class="st8" points="42.6,323.6 39.4,331 42.6,338.4 25,331 			"/>
		</g>
	</g>
</g>
<g>
	<g>
		<path class="st15" d="M553.1,156.9c-4,6.5-7.7,17.3-0.5,30.8"/>
		<g>
			<polygon class="st8" points="546.2,156.8 552.1,158.5 555,163.8 558.9,150.1 			"/>
		</g>
	</g>
</g>
<g>
	<text transform="matrix(1 0 0 1 563.8822 194.8704)" class="st16"><tspan x="0" y="0" class="st8 st9 st10">frequency</tspan><tspan x="0" y="33.6" class="st8 st9 st10">for right word</tspan></text>
</g>
<g>
	<g>
		<line class="st14" x1="995.5" y1="330" x2="1024.5" y2="330"/>
		<g>
			<polygon class="st8" points="1018.9,337.4 1022.1,330 1018.9,322.6 1036.5,330 			"/>
		</g>
	</g>
</g>
<circle id="word__circle-4674599531__0" class="st11" cx="897.1" cy="184.4" r="46.3"/>
<circle id="word__circle-11017368088__1" class="st12" cx="828.7" cy="184.4" r="22.1"/>
<text id="word__text-4674599531" transform="matrix(1 0 0 1 818.1874 192.3519)" class="st8 st9 st17">recent</text>
<g>
	<text transform="matrix(1 0 0 1 89.7142 72.3149)" class="st16"><tspan x="0" y="0" class="st8 st9 st10">more frequent</tspan><tspan x="0" y="33.6" class="st8 st9 st10">with left word</tspan></text>
</g>
<g>
	<g>
		<path class="st15" d="M223.8,114.7c32.7,6.3,35.9,31.8,36.1,51.1"/>
		<g>
			<polygon class="st8" points="258.9,179.5 268.5,159.9 259.8,162.9 251.5,158.9 			"/>
		</g>
	</g>
</g>
<g>
	<g>
		<circle id="word__circle-4673278895__0" class="st11" cx="287.7" cy="206" r="29.2"/>
		<circle id="word__circle-11015487983__1" class="st12" cx="204.6" cy="206" r="53.9"/>
	</g>
	<g>
		<text id="word__text-4673278895" transform="matrix(1 0 0 1 207.991 215.9735)" class="st8 st9 st18">further</text>
	</g>
</g>
<g>
	<g>
		<path class="st15" d="M510.6,184.1c9-12.4,6.9-23.6,3.8-30.6"/>
		<g>
			<polygon class="st8" points="509.6,145.9 511.6,160.1 515.2,155.2 521.2,154.3 			"/>
		</g>
	</g>
</g>
<g>
	<text transform="matrix(1 0 0 1 789.4561 47.7518)" class="st16"><tspan x="0" y="0" class="st8 st9 st10">more frequent</tspan><tspan x="-6.2" y="33.6" class="st8 st9 st10">with right word</tspan></text>
</g>
<g>
	<g>
		<path class="st15" d="M843.3,140.9c0.2-20.1,11-43.9,41.2-49"/>
		<g>
			<polygon class="st8" points="852,133.7 843.4,137.9 834.4,134.7 844.3,155.2 			"/>
		</g>
	</g>
</g>
<g>
	<text transform="matrix(1 0 0 1 378.8839 191.5484)" class="st16"><tspan x="0" y="0" class="st8 st9 st10">frequency</tspan><tspan x="-23.3" y="33.6" class="st8 st9 st10">for left word</tspan></text>
</g>
<g>
	
		<text id="main_word-0-research__text" transform="matrix(6.123234e-17 -1 1 6.123234e-17 1028.6436 211.1777)" class="st8 st9 st19">right</text>
	
		<text id="main_word-1-experiment__text" transform="matrix(6.123234e-17 -1 1 6.123234e-17 59.0952 199.4355)" class="st8 st9 st20">left</text>
</g>
</svg>
