<?xml version="1.0" standalone="no"?>
<!DOCTYPE svg PUBLIC "-//W3C//DTD SVG 20010904//EN"
 "http://www.w3.org/TR/2001/REC-SVG-20010904/DTD/svg10.dtd">
<svg version="1.0" xmlns="http://www.w3.org/2000/svg"
 width="564.000000pt" height="564.000000pt" viewBox="0 0 564.000000 564.000000"
 preserveAspectRatio="xMidYMid meet">
<metadata>
Created by potrace 1.11, written by Peter Selinger 2001-2013
</metadata>
<g transform="translate(0.000000,564.000000) scale(0.100000,-0.100000)"
fill="#000000" stroke="none">
<path d="M2609 5636 c-2 -2 -38 -6 -79 -10 -41 -3 -84 -8 -95 -10 -11 -2 -54
-9 -95 -16 -378 -61 -779 -222 -1102 -443 -192 -131 -416 -330 -548 -487 -30
-35 -60 -70 -67 -78 -7 -7 -45 -59 -86 -115 -123 -169 -229 -356 -306 -537
-18 -41 -36 -84 -41 -95 -24 -53 -74 -212 -100 -315 -41 -164 -61 -277 -80
-457 -8 -83 -6 -508 3 -533 3 -8 8 -42 11 -75 6 -56 8 -73 21 -135 2 -14 7
-41 10 -60 23 -139 98 -381 170 -550 165 -385 449 -774 755 -1030 36 -30 67
-57 70 -60 23 -26 214 -158 322 -224 287 -173 692 -321 988 -361 19 -3 44 -6
55 -9 24 -4 121 -16 190 -22 112 -9 379 -4 510 11 273 30 469 78 750 184 17 6
39 16 50 20 148 68 193 90 279 138 84 47 233 142 296 190 255 193 508 459 676
713 200 301 350 666 414 1010 22 116 29 165 45 315 7 64 8 380 1 455 -53 596
-272 1131 -651 1583 -199 237 -409 419 -685 593 -89 56 -232 131 -330 173 -41
18 -88 38 -105 46 -79 35 -336 112 -445 134 -84 17 -98 19 -275 46 -43 7 -520
16 -526 11z m-306 -1139 c88 -150 327 -565 340 -589 39 -73 190 -329 197 -333
5 -3 34 41 66 97 53 95 139 246 194 343 12 22 76 137 142 255 67 118 128 226
137 240 8 14 16 28 16 32 0 4 8 16 17 27 16 19 31 20 557 20 298 0 541 -3 541
-5 0 -6 -378 -569 -845 -1259 -215 -318 -305 -453 -305 -459 0 -3 267 -405
593 -893 326 -488 596 -893 600 -899 5 -9 -139 -12 -566 -12 l-573 1 -95 165
c-52 91 -106 186 -120 211 -14 25 -79 138 -144 251 -65 113 -125 219 -134 235
-38 69 -113 195 -116 195 -2 0 -164 -276 -223 -380 -11 -19 -43 -75 -72 -125
-29 -49 -61 -105 -72 -123 -10 -18 -53 -93 -95 -165 -42 -73 -92 -159 -110
-192 -19 -33 -39 -63 -45 -66 -6 -4 -258 -7 -560 -6 -434 0 -548 3 -544 13 3
7 33 54 69 106 35 51 157 233 272 403 114 171 277 411 360 535 84 124 229 339
323 478 l170 253 -307 462 c-620 931 -841 1266 -841 1270 0 3 252 5 560 5
l560 0 53 -91z"/>
</g>
</svg>
